<?xml version="1.0" standalone="no"?><!DOCTYPE svg PUBLIC "-//W3C//DTD SVG 1.1//EN" "http://www.w3.org/Graphics/SVG/1.1/DTD/svg11.dtd"><svg t="1758590231268" class="icon" viewBox="0 0 1396 1024" version="1.1" xmlns="http://www.w3.org/2000/svg" p-id="4567" xmlns:xlink="http://www.w3.org/1999/xlink" width="272.65625" height="200"><path d="M902.995 118.831c10.564-6.411 25.033-8.487 35.525-0.823 14.11 9.311 15.793 32.016 3.689 43.548-18.228 15.936-43.762 21.845-59.985 40.253-5.551 11.818-4.405 28.864 5.802 37.997 11.495 7.52 27.146 5.765 38.641-0.966 64.892-36.027 128.851-73.701 193.205-110.767 12.928-7.234 26.143-17.87 41.971-14.827 22.239 3.33 29.76 37.28 11.353 50.101-20.521 14.827-44.479 24.244-64.998 39.107-13.609 9.419-15.722 31.335-3.366 42.617 10.171 12.534 29.259 10.529 41.614 2.507 38.247-22.919 77.282-44.443 115.673-67.111 9.132-5.909 20.556-8.559 31.121-5.157 9.526 2.937 14.468 12.749 17.369 21.523 3.581 12.463-4.477 25.283-15.292 31.121-76.244 44.335-152.81 88.17-229.089 132.433-11.281 6.554-23.349 12.247-32.982 21.236-13.466 11.603-10.385 36.528 5.479 44.622 9.633 5.622 21.882 5.229 31.372-0.538 41.865-23.6 83.227-48.167 124.948-72.053 7.735-4.047 16.545-8.81 25.499-5.73 15.399 3.403 25.642 20.341 22.060 35.562-3.187 12.105-14.397 19.302-24.531 25.212-74.99 43.118-150.303 85.698-224.613 129.998-8.237 4.62-15.328 10.994-23.708 15.328-8.201 3.831-16.617 7.126-24.46 11.638-50.208 29.724-101.204 58.087-151.413 87.74-73.63 42.831-148.083 84.337-220.925 128.422-72.555 39.966-143.749 82.332-215.625 123.479-11.173 6.912-26.93 8.451-37.388-0.609-14.754-11.818-12.677-37.961 4.155-46.914 30.082-17.763 60.415-35.167 90.819-52.393 9.562-5.587 19.769-12.714 22.705-24.101 3.366-14.503-5.945-31.407-20.95-34.523-10.028-2.829-20.091 1.146-28.65 6.195-76.351 44.228-152.989 87.99-229.125 132.576-11.245 6.947-27.325 9.060-37.746-0.465-7.091-8.345-13.931-20.162-8.881-31.228 3.438-11.388 14.683-17.046 24.173-22.634 39.68-22.204 78.607-45.661 118.287-67.9 9.025-5.229 19.017-12.427 19.911-23.779 3.868-17.154-11.962-35.346-29.438-33.734-8.165-0.179-15.542 3.796-22.418 7.699-18.049 10.529-36.134 20.986-54.041 31.729-9.419 5.372-19.732 11.353-31.013 9.382-20.054-1.433-31.443-29.043-18.587-44.3 10.35-11.997 25.605-17.798 38.82-25.856 61.919-35.919 124.482-70.871 185.292-108.689 5.013-2.9 10.242-5.408 15.435-7.95 8.524 25.927 18.407 51.927 33.878 74.561 14.289 20.843 39.429 31.228 63.889 33.449 42.258 3.868 84.875-3.581 124.661-17.763 59.197-19.732 116.389-45.911 169.212-79.216 51.927-32.589 101.634-69.762 142.496-115.78 19.875-23.17 38.498-48.561 47.666-78.070 5.622-18.121 7.126-38.784-1.575-56.225-32.481-63.459-89.136-113.023-154.35-140.921 6.804-8.667 17.369-12.463 26.752-17.619 30.798-16.653 61.275-33.986 91.679-51.39zM284.666 474.91c21.38-11.854 41.398-26.251 63.566-36.636-2.543 23.922-3.796 48.096-0.823 72.018-18.658 7.664-36.385 25.319-57.872 20.198-24.209-6.554-27.109-44.693-4.87-55.58z" fill="#6B78A0" p-id="4568"></path><path d="M495.347 210.904c51.318-32.625 112.163-48.060 172.614-48.704 39.859 2.794 79.682 9.884 116.604 25.642 65.214 27.898 121.869 77.461 154.35 140.921 8.702 17.44 7.198 38.103 1.575 56.225-9.168 29.509-27.79 54.9-47.666 78.070-40.862 46.018-90.569 83.191-142.496 115.78-52.822 33.306-110.015 59.484-169.212 79.216-0.895-6.841-3.904-14.002-1.683-20.806 4.369-6.554 11.567-10.385 18.085-14.468 43.189-24.853 86.629-49.349 129.532-74.668 14.038-6.16 12.964-31.049-2.757-34.093-10.601-1.755-20.234 4.62-29.222 9.276-30.763 18.336-61.955 35.955-92.861 54.076-7.628 3.796-16.331 9.705-25.14 6.195-10.421-3.044-12.714-16.402-8.774-25.248 4.978-7.306 13.143-11.424 20.556-15.865 42.975-23.565 84.767-49.205 127.669-72.949 8.667-5.551 21.38-11.281 20.091-23.6 2.005-15.614-18.3-22.239-29.473-14.218-62.814 36.206-125.737 72.34-188.479 108.689-10.994 6.267-21.523 13.895-33.914 17.189-9.777 2.722-21.415-4.548-21.13-15.255-1.683-9.956 7.019-16.474 14.54-20.914 66.932-37.997 133.436-76.817 200.189-115.207 10.385-6.089 21.558-11.245 30.512-19.41 11.782-10.278-0.108-33.591-15.363-29.76-10.601 2.578-19.804 8.667-29.187 13.967-51.139 30.082-102.924 59.090-153.956 89.315-7.306 3.617-15.506 8.774-23.958 6.089-10.493-2.794-14.79-16.294-9.92-25.426 4.477-6.446 11.603-10.242 18.121-14.289 38.784-21.953 77.39-44.192 115.888-66.61 11.066-6.733 23.922-11.532 32.517-21.595 9.526-13.859-7.664-34.129-22.812-26.143-30.225 14.146-57.12 34.63-87.345 48.812-12.105 7.342-28.327-4.978-25.785-18.443 1.146-9.347 10.529-13.788 17.548-18.336 28.291-15.865 56.046-32.625 84.445-48.239 8.559-5.372 20.986-11.245 19.41-23.386-0.143-14.002-17.297-22.526-28.686-14.361-43.548 24.138-86.342 49.707-129.425 74.704-7.772 4.118-16.939 9.777-25.892 5.659-12.785-3.975-13.645-24.388-2.722-30.87 22.848-15.936 49.026-26.608 71.803-42.688 7.413-4.834 8.953-14.97 5.479-22.669-3.151-10.099-15.542-8.738-23.671-11.603zM945.29 565.657c7.843-4.512 16.258-7.807 24.46-11.638-12.105 60.201-45.983 115.171-90.711 156.821-15.113 14.898-32.41 27.647-51.283 37.424 2.399-9.454 6.303-22.526-3.939-28.864-13.358-5.013-26.322 3.617-37.567 9.849-19.911 10.959-38.677 24.101-59.197 33.878-12.463 7.198-28.005-5.551-25.856-18.98 1.755-8.881 10.171-13.967 17.118-18.658 20.198-12.319 41.041-23.421 61.561-35.132 7.699-4.799 16.688-10.314 18.766-19.875-0.43-5.945-2.9-11.495-4.763-17.083 50.208-29.652 101.204-58.016 151.413-87.74z" fill="#2EFDDF" p-id="4569"></path><path d="M348.231 438.274c11.746-92.359 65.894-180.421 147.116-227.371 8.129 2.865 20.521 1.504 23.671 11.603 3.474 7.699 1.934 17.835-5.479 22.669-22.777 16.080-48.955 26.752-71.803 42.688-10.923 6.482-10.063 26.895 2.722 30.87 8.953 4.118 18.121-1.54 25.892-5.659 43.082-24.996 85.877-50.566 129.425-74.704 11.388-8.165 28.542 0.358 28.686 14.361 1.575 12.141-10.851 18.014-19.41 23.386-28.399 15.614-56.154 32.374-84.445 48.239-7.019 4.548-16.402 8.989-17.548 18.336-2.543 13.466 13.68 25.785 25.785 18.443 30.225-14.181 57.12-34.666 87.345-48.812 15.149-7.986 32.338 12.284 22.812 26.143-8.595 10.063-21.452 14.862-32.517 21.595-38.498 22.418-77.103 44.657-115.888 66.61-6.517 4.047-13.645 7.843-18.121 14.289-4.87 9.132-0.573 22.634 9.92 25.426 8.451 2.686 16.653-2.471 23.958-6.089 51.033-30.225 102.816-59.233 153.956-89.315 9.382-5.3 18.587-11.388 29.187-13.967 15.255-3.831 27.146 19.482 15.363 29.76-8.953 8.165-20.126 13.322-30.512 19.41-66.754 38.39-133.257 77.211-200.189 115.207-7.52 4.441-16.223 10.959-14.54 20.914-0.287 10.708 11.353 17.978 21.13 15.255 12.391-3.295 22.919-10.923 33.914-17.189 62.742-36.349 125.664-72.483 188.479-108.689 11.173-8.022 31.478-1.396 29.473 14.218 1.29 12.319-11.424 18.049-20.091 23.6-42.902 23.743-84.695 49.385-127.669 72.949-7.413 4.441-15.579 8.559-20.556 15.865-3.939 8.846-1.647 22.204 8.774 25.248 8.81 3.509 17.513-2.399 25.14-6.195 30.906-18.121 62.098-35.741 92.861-54.076 8.989-4.656 18.622-11.030 29.222-9.276 15.722 3.044 16.796 27.934 2.757 34.093-42.902 25.319-86.342 49.814-129.532 74.668-6.517 4.082-13.716 7.915-18.085 14.468-2.221 6.804 0.788 13.967 1.683 20.806-39.787 14.181-82.403 21.631-124.661 17.763-24.46-2.221-49.6-12.606-63.889-33.449-15.471-22.634-25.355-48.633-33.878-74.561-7.281-22.257-11.681-47.898-12.117-74.503-2.135-6.933-0.882-31.106 1.661-55.029zM572.953 781.819c72.842-44.084 147.295-85.59 220.925-128.422 1.862 5.587 4.333 11.137 4.763 17.083-2.077 9.562-11.066 15.077-18.766 19.875-20.521 11.711-41.363 22.812-61.561 35.132-6.947 4.691-15.363 9.777-17.118 18.658-2.148 13.429 13.394 26.178 25.856 18.98 20.521-9.777 39.285-22.919 59.197-33.878 11.245-6.231 24.209-14.862 37.567-9.849 10.242 6.339 6.339 19.41 3.939 28.864-49.421 34.738-111.053 48.74-170.823 48.955-28.291-2.757-57.371-4.441-83.979-15.399z" fill="#01E0D4" p-id="4570"></path></svg>